# xmcd CD database file
#
# Track frame offsets:
#	150
#	11108
#	18871
#	29241
#	38028
#	47150
#	58802
#	69660
#	80704
#	89207
#	98020
#	106919
#
# Disc length: 1593 seconds
#
# Revision: 0
# Processed by: cddbd v1.5.2PL0 Copyright (c) Steve Scherf et al.
# Submitted via: CDex 1.94
#
DISCID=a406370c
DTITLE=Roger Miller - Pure
DYEAR=2007
DGENRE=Country
TTITLE0=King Of The Road
TTITLE1=Dang Me
TTITLE2=Engine, Engine #9
TTITLE3=England Swings
TTITLE4=Chug-A-Lug
TTITLE5=Walkin' In The Sunshine
TTITLE6=Kansas City Star
TTITLE7=Husbands And Wives
TTITLE8=You Can't Rollerskate In A Buffalo Herd
TTITLE9=My Uncle Used To Love Me But She Died
TTITLE10=Billy Bayou
TTITLE11=The Last Word In Lonesome Is Me
EXTD=YEAR: 2007
EXTT0=
EXTT1=
EXTT2=
EXTT3=
EXTT4=
EXTT5=
EXTT6=
EXTT7=
EXTT8=
EXTT9=
EXTT10=
EXTT11=
PLAYORDER=
